<svg xmlns="http://www.w3.org/2000/svg" viewBox="0 0 1494.96 1226.19"><defs><style>.cls-1,.cls-2{fill:none;stroke:#000;stroke-miterlimit:10;}.cls-1{stroke-width:15px;}.cls-2{stroke-width:26px;}.cls-3{fill:#fff;}</style></defs><title>Fichier 3back</title><g id="Calque_2" data-name="Calque 2"><g id="Calque_1-2" data-name="Calque 1"><path class="cls-1" d="M430.24,273.14,145,15.48c-5-4.29-11.74,2.52-7.43,7.46L371.74,279.27c8.4,9.63-4.85,22.88-14.49,14.48L101.11,60.52c-5-4.3-11.74,2.5-7.43,7.45L327.3,323.7c8.4,9.64-4.85,22.89-14.49,14.49L57.35,104.8c-5-4.31-11.76,2.49-7.45,7.44L283,368c8.4,9.64-4.85,22.89-14.48,14.48L16.32,152c-5-4.33-11.79,2.52-7.43,7.46l256,279.12c47.22,47.22,116.38,54.64,154.46,16.57l27.49-27.5C484.89,389.53,477.47,320.37,430.24,273.14Z"/><path class="cls-2" d="M1172.66,1184.43h0a92.42,92.42,0,0,1-133.27-2.68L421,511.62a48.9,48.9,0,0,1,1.36-67.73h0A48.89,48.89,0,0,1,489.51,442L1169,1050.21A92.42,92.42,0,0,1,1172.66,1184.43Z"/><path class="cls-2" d="M306.05,1185.6h0c37.8,36.43,95.68,36.83,127.39.89L984.23,562.2c15.85-18,13.45-46.54-5.45-64.75h0c-18.68-18-47-19.55-64.4-3.51l-613,563.52C265.71,1090.24,267.85,1148.79,306.05,1185.6Z"/><path class="cls-2" d="M1004.32,540.51l-75.84-75.84s66.36-175,218.6-327.21c164-164,409.07-148.78,313.36-53.08L1004.32,540.51Z"/><path class="cls-3" d="M479.72,996.94c249.11-78.19,423-78.19,522.26,46.13l26.29-207S883.55,603.68,444.91,825.56C466.69,935.39,479.72,996.94,479.72,996.94Z"/><path class="cls-3" d="M479.4,507.2C597.4,482.39,681.78,406.42,720,289.64c35.07-107.17,245.2-79.55,216.6,213.07,354.9-96.19,342.13,302.36,123.21,335.74l-58.14,205"/><path d="M479.4,507.2A422.76,422.76,0,0,0,523.8,486a330.21,330.21,0,0,0,40.05-26.07,290,290,0,0,0,63.33-65.77c1.05-1.54,2.11-3.07,3.13-4.62.53-.77,1-1.55,1.58-2.29s1.06-1.52,1.61-2.25c2.18-3,4.51-5.82,6.93-8.6s4.85-5.57,7.12-8.5,4.37-6,6.42-9.06a303.06,303.06,0,0,0,21.85-38.95q4.8-10.15,8.89-20.7,2.06-5.26,3.94-10.61c.63-1.78,1.26-3.56,1.85-5.36l.91-2.69,1.29-3.76a115,115,0,0,1,15.61-29.23,110.17,110.17,0,0,1,23.88-23.64,112.58,112.58,0,0,1,29.62-15.33,118.74,118.74,0,0,1,32.13-6.19,131.86,131.86,0,0,1,61.76,12.05,157.56,157.56,0,0,1,48.83,35.32A200.8,200.8,0,0,1,937.43,297,266.25,266.25,0,0,1,957,348.65a352.83,352.83,0,0,1,9.7,52.77c3.8,35.19,3,70-.25,104.21l-37.7-31.88c27.19-7.33,55.26-12.83,84.25-15a321.82,321.82,0,0,1,44.06-.39,254,254,0,0,1,44.76,6.66,206.84,206.84,0,0,1,43.85,15.91,181.09,181.09,0,0,1,39.59,26.82,173,173,0,0,1,31.1,36.81,183.48,183.48,0,0,1,19.9,43.33c9.37,30.21,11.18,61.83,7,92.17a233.18,233.18,0,0,1-30,86.2,222.81,222.81,0,0,1-27.48,37.13A208.73,208.73,0,0,1,1150.63,834a203.49,203.49,0,0,1-41.3,22,222.08,222.08,0,0,1-22.22,7.33c-7.48,2.11-15,4.41-22.68,5.41l24.9-22c-.66,2.12-1.41,4.21-2.22,6.29s-1.73,4.12-2.61,6.18l-5.29,12.35-10.64,24.67-10.8,24.62c-3.6,8.21-7.18,16.43-10.88,24.61l-11,24.56-11.18,24.52c-7.57,16.31-15.11,32.63-23,48.84,1.76-18,3.91-35.8,6-53.66l3.35-26.74,3.52-26.69c1.15-8.9,2.42-17.78,3.66-26.65L1022,883.1l3.9-26.59,2-13.28c.33-2.21.65-4.43,1-6.63s.86-4.37,1.41-6.52l4.66-18.22,20.25-3.76c5.47-1,11-1.43,16.45-2.76a132.53,132.53,0,0,0,15.77-5.13,142.59,142.59,0,0,0,29.11-15.54,148.74,148.74,0,0,0,25-21.85,162.33,162.33,0,0,0,20-27.07,173,173,0,0,0,22.25-63.92c3.13-22.42,1.64-45.32-4.82-66.1s-18-39.24-33.73-53.26a120.18,120.18,0,0,0-26.46-17.89,147,147,0,0,0-31.21-11.28c-22-5.38-45.95-6.53-70.13-4.72-6.05.46-12.12,1.07-18.21,1.89s-12.18,1.78-18.27,2.87c-12.19,2.24-24.38,5-36.53,8.32L902.55,543l4.19-43.17c3-31,3.56-61.92.32-91.86a293.44,293.44,0,0,0-8-43.73,206.56,206.56,0,0,0-15.08-40,140.7,140.7,0,0,0-23-33.15,97.6,97.6,0,0,0-30.16-22,71.92,71.92,0,0,0-33.66-6.75,55.6,55.6,0,0,0-29.77,10.18,51.75,51.75,0,0,0-18.29,24.72l-1.75,5.17c-.69,2.09-1.42,4.17-2.16,6.24-1.46,4.16-3,8.29-4.61,12.41q-4.8,12.35-10.48,24.41A362.7,362.7,0,0,1,704,392c-1.24,1.86-2.49,3.72-3.77,5.56l-3.78,5.56c-2.51,3.72-5,7.46-7.63,11.13a97.48,97.48,0,0,1-8.61,10.41,131.63,131.63,0,0,1-10,9.21A301.05,301.05,0,0,1,579,488,307.68,307.68,0,0,1,479.4,507.2Z"/><path class="cls-3" d="M653.7,287.92C386.34,545.07,403.18,405.23,254.36,449.41c-162.28,48.17-194.4,389,186.53,389,0,0,431.58-234.15,589.07,0"/><path d="M653.7,287.92q-5.12,7-10.31,13.91c-3.51,4.56-7,9.18-10.55,13.72l-10.77,13.57-5.48,6.72q-2.73,3.36-5.53,6.68Q600,355.89,588.34,368.9c-3.87,4.34-7.83,8.62-11.78,12.92s-8,8.51-12.15,12.7c-8.22,8.39-16.64,16.69-25.51,24.7s-18,15.89-27.81,23.41l-3.67,2.83c-1.25.92-2.52,1.82-3.79,2.73a90.52,90.52,0,0,1-7.94,5c-2.7,1.56-5.6,2.91-8.46,4.25s-5.86,2.53-8.83,3.74-6,2.44-9,3.6c-1.52.6-3,1.22-4.56,1.8l-4.65,1.72a197.37,197.37,0,0,1-19.35,5.8,170.2,170.2,0,0,1-20.44,3.62,164.82,164.82,0,0,1-20.77,1c-13.74-.16-26.65-2-38.14-3.8s-21.82-3.51-31.66-4.32a165.45,165.45,0,0,0-28.85,0,185.37,185.37,0,0,0-28.88,5.07c-1.21.31-2.42.59-3.64.93l-3.64,1-1.82.51-1.59.5c-1.06.31-2.11.67-3.16,1a107.74,107.74,0,0,0-12.28,5.15,124,124,0,0,0-42,34.69A158.61,158.61,0,0,0,177.6,570a171.68,171.68,0,0,0-7.8,57.2,161.05,161.05,0,0,0,42.67,104.35,182.13,182.13,0,0,0,21.43,19.86,209.08,209.08,0,0,0,24.66,16.64,263.72,263.72,0,0,0,56.25,23.87,374.93,374.93,0,0,0,61.76,12.72,519.43,519.43,0,0,0,64.32,3.79l-14.3,3.63,4.9-2.58,4.68-2.41q4.65-2.37,9.3-4.65,9.3-4.58,18.62-8.93,18.68-8.71,37.6-16.71,37.86-16,76.88-29.33c26-8.84,52.46-16.68,79.35-23.28A731,731,0,0,1,740,708.79c13.92-1.73,28-3,42.1-3.74s28.38-.58,42.75-.92a100.12,100.12,0,0,1,21.5,2.22q10.67,2.16,21.23,4.94a305.72,305.72,0,0,1,41.32,14,263.35,263.35,0,0,1,38.59,20q9.16,5.78,17.71,12.35c5.69,4.36,11.16,9,16.35,13.81a213.48,213.48,0,0,1,48.41,67q-7-7.37-14.35-14.13c-4.92-4.49-10-8.7-15.22-12.72s-10.57-7.7-16-11.17-11-6.67-16.7-9.57a217.42,217.42,0,0,0-35-14.21,239.63,239.63,0,0,0-36.3-8.19c-6.13-.88-12.27-1.56-18.41-2.08s-12.33-.75-18.5-.89-12.35-.07-18.53.17l-4.63.15q-2.31,0-4.62,0c-3.07-.08-6.14-.25-9.21-.54-12.32-1.32-24.81-.88-37.33-.3s-25.09,1.79-37.67,3.36c-50.34,6.38-100.55,19.34-149.62,36q-36.81,12.5-72.77,27.76-18,7.61-35.6,15.83Q480.66,852,472,856.26l-8.61,4.31-4.23,2.17-3.95,2.08-6.9,3.64h-7.41a581.28,581.28,0,0,1-71.73-4.24,436.15,436.15,0,0,1-71.64-14.82,323.3,323.3,0,0,1-69-29.37,269.49,269.49,0,0,1-31.8-21.48,242.87,242.87,0,0,1-28.52-26.44,221.18,221.18,0,0,1-58.38-142.81A231.27,231.27,0,0,1,120.37,552a218.57,218.57,0,0,1,36.53-69.66c16.47-20.93,37.65-39,62.45-51.29a167.37,167.37,0,0,1,19.14-8c1.64-.58,3.28-1.13,4.94-1.64l2.48-.76,2.28-.65,4.56-1.29c1.52-.42,3.07-.79,4.61-1.19a244.71,244.71,0,0,1,38.22-6.65,224.81,224.81,0,0,1,39.26,0c12.82,1.07,25,3.12,35.89,4.83s20.62,3,29.63,3.09a105.71,105.71,0,0,0,26.37-3,137.21,137.21,0,0,0,13.29-4A102.07,102.07,0,0,0,453.35,406c1.09-.57,2.18-1.19,3.28-1.78s2.19-1.16,3.28-1.81c2.18-1.27,4.4-2.4,6.67-3.6s4.59-2.21,7-3.29c1.19-.51,2.39-1,3.6-1.51l3.63-1.59a564.11,564.11,0,0,0,58.11-30.35c19.3-11.31,38.42-23.52,57.55-36S634.53,300.78,653.7,287.92Z"/><line class="cls-3" x1="440.33" y1="838.45" x2="498.47" y2="1044.47"/><polygon points="469.2 830.3 498.47 1044.47 411.46 846.6 469.2 830.3"/><path d="M467.93,956.41c23.29-5.27,46.67-10.24,70.2-14.67s47.25-8.22,71.08-11.38,47.87-5.45,72-6.8a682.26,682.26,0,0,1,72.65-.34,473.45,473.45,0,0,1,72.37,9.06l4.47.92,2.24.47,2.22.55,8.87,2.23,4.42,1.11,4.39,1.3,8.75,2.62,2.18.66,2.16.76,4.31,1.51c2.87,1,5.74,2,8.59,3.06l8.45,3.45c2.81,1.15,5.63,2.26,8.36,3.61l8.23,3.88,2,1c.67.34,1.34.71,2,1.07l4,2.15c2.66,1.46,5.34,2.83,8,4.35l7.72,4.73,3.85,2.36c1.25.83,2.48,1.71,3.72,2.56l7.4,5.14c1.25.82,2.39,1.81,3.59,2.71l3.53,2.77,3.53,2.77,1.76,1.38,1.68,1.48a263.77,263.77,0,0,1,47,52.62A258,258,0,0,0,950.08,1002l-1.8-1.13-1.88-1-3.74-2.06-3.72-2c-1.26-.67-2.46-1.41-3.76-2l-7.66-3.66c-1.28-.6-2.54-1.23-3.83-1.81l-3.92-1.61-7.81-3.2c-2.63-1-5.32-1.87-8-2.8l-4-1.38c-.67-.22-1.32-.47-2-.68l-2-.58-8.08-2.31c-2.66-.83-5.41-1.42-8.13-2l-8.16-1.89c-2.74-.53-5.51-1-8.25-1.5l-4.11-.74-2-.37-2.08-.27-8.3-1.08-4.14-.54-4.17-.35-8.33-.7-2.08-.18-2.09-.09-4.18-.17A434.76,434.76,0,0,0,755,968.21a633.76,633.76,0,0,0-66.35,11.11q-33,7.26-65.47,17.09c-21.66,6.53-43.17,13.72-64.55,21.37s-42.6,16-63.73,24.5Z"/><path class="cls-3" d="M411.7,628.43c0,62.81,65.73,119.89,113.33,155.62"/><path d="M411.7,628.43a95.13,95.13,0,0,0,6.31,23.8,121.13,121.13,0,0,0,11.33,21.29c8.85,13.36,19.78,25.1,31.59,35.81a342.87,342.87,0,0,0,37.92,29.38c13.29,9,27.08,17.35,41.19,25.34l-30,40c-12.4-11.92-24.56-24.28-36.08-37.28a375.26,375.26,0,0,1-32.06-41.23C432.27,711,423.83,695.47,418.1,679A130.58,130.58,0,0,1,412,653.81,99,99,0,0,1,411.7,628.43Z"/><path class="cls-3" d="M821.18,563.19c22.91,54.64-13.46,128.26-41.84,176.71"/><path d="M821.18,563.19a92.85,92.85,0,0,1,9.2,22.14,122.7,122.7,0,0,1,4,24.2c1.14,16.47-.43,33.1-3.4,49.35a354.37,354.37,0,0,1-12.57,47.8c-5.19,15.6-11.17,30.88-17.52,45.85l-43.14-25.27c9.45-12,18.49-24.21,26.86-36.81a325.11,325.11,0,0,0,22.55-39.14c6.47-13.55,11.8-27.69,14.74-42.48a113.72,113.72,0,0,0,2.28-22.61A90,90,0,0,0,821.18,563.19Z"/><path class="cls-3" d="M953.65,606.08c-7.62,58.76-76,104.17-124.9,131.82"/><path d="M953.65,606.08a93.1,93.1,0,0,1-3.16,23.77,123.46,123.46,0,0,1-8.67,22.95c-7.28,14.81-17,28.41-27.72,41a352.65,352.65,0,0,1-34.87,35c-12.32,10.89-25.16,21.1-38.17,30.86l-24.63-43.52c14.21-5.65,28.15-11.65,41.72-18.35a323.27,323.27,0,0,0,39.15-22.53c12.4-8.47,24.1-18,34.08-29.33a113.37,113.37,0,0,0,13.31-18.42A89.46,89.46,0,0,0,953.65,606.08Z"/><path d="M479.4,507.2c14.72-9.53,28.67-18.94,41.63-28.92a398,398,0,0,0,36-31,19.5,19.5,0,0,1,4.59-3.12c.82-.41,1.68-.76,2.54-1.12s1.69-.75,2.53-1.14a46.67,46.67,0,0,0,4.85-2.68c1.59-.92,3.09-2,4.65-3l4.62-3,4.51-3.18c3.05-2.06,5.92-4.37,8.87-6.56a264.83,264.83,0,0,0,32.47-29.81c2.55-2.65,4.9-5.49,7.34-8.26,1.23-1.37,2.36-2.83,3.53-4.25l3.48-4.3,3.35-4.42c1.1-1.49,2.26-2.92,3.3-4.45l3.2-4.54c.53-.76,1.07-1.51,1.59-2.28l1.52-2.33a308.51,308.51,0,0,0,21.87-38.93c1.6-3.39,3.08-6.84,4.63-10.25s2.88-6.95,4.26-10.45,2.71-7,3.94-10.61l1.84-5.36.92-2.68,1.34-3.76a118.49,118.49,0,0,1,6.65-15.09c.65-1.22,1.37-2.42,2.05-3.63s1.36-2.42,2.15-3.58c1.53-2.34,3-4.7,4.75-6.92.84-1.12,1.67-2.25,2.54-3.35L713.6,241l1.37-1.6,1.45-1.54,2.92-3a112.16,112.16,0,0,1,42.47-26.22c1.3-.48,2.62-.87,4-1.26s2.64-.79,4-1.16l4-1,2-.46,2-.38,4-.72c1.34-.21,2.69-.36,4.05-.54,2.7-.38,5.4-.53,8.1-.72a127,127,0,0,1,31.95,2.37c2.62.46,5.15,1.17,7.72,1.78s5,1.46,7.56,2.21,4.94,1.71,7.36,2.66l3.61,1.48c1.2.49,2.4,1,3.56,1.56a158,158,0,0,1,48.81,35.32,191,191,0,0,1,18.37,22.68A224.8,224.8,0,0,1,937.41,297,268.38,268.38,0,0,1,957,348.66l1.65,6.58.82,3.29.72,3.29,1.44,6.6,1.23,6.6c.39,2.2.84,4.4,1.15,6.6s.63,4.41,1.15,6.58,1.1,4.34,1.44,6.54a24.08,24.08,0,0,1,.1,6.68,345.92,345.92,0,0,1-30.11,101.29c-4.42-16.88-8.71-33.27-13.51-49.13s-10.09-31.16-16-45.65a17.75,17.75,0,0,1-1.39-5.49c-.16-1.87,0-3.78-.18-5.64a54.29,54.29,0,0,0-.7-5.55c-.25-1.86-.63-3.67-.95-5.49l-1-5.47-1.18-5.4-.58-2.7-.67-2.66L899,364.21a207.48,207.48,0,0,0-15.09-40,163.59,163.59,0,0,0-10.46-17.69A130.17,130.17,0,0,0,861,291.07a98,98,0,0,0-30.15-22,19.76,19.76,0,0,0-2.06-.9l-2.07-.86c-1.38-.55-2.79-1-4.17-1.51s-2.81-.88-4.22-1.23-2.82-.76-4.25-1a67.21,67.21,0,0,0-16.88-1.28,55.5,55.5,0,0,0-29.76,10.2,51.22,51.22,0,0,0-5.86,4.94l-1.32,1.39-.67.69-.61.74-1.25,1.46c-.4.5-.76,1-1.15,1.55-.82,1-1.47,2.13-2.21,3.19-.38.52-.66,1.13-1,1.69s-.67,1.12-1,1.7a59.37,59.37,0,0,0-3.23,7.36l-.74,2-1.07,3.13-2.14,6.25c-1.44,4.16-3.07,8.27-4.61,12.4s-3.33,8.19-5,12.28-3.58,8.11-5.47,12.13A369,369,0,0,1,703.92,392l-1.84,2.8c-.62.93-1.28,1.84-1.92,2.76l-3.87,5.5c-1.27,1.84-2.67,3.6-4,5.4l-4.07,5.37L684,419.09c-1.42,1.74-2.81,3.5-4.31,5.18-3,3.39-5.85,6.84-9,10.1a323,323,0,0,1-39.79,36.51c-3.61,2.71-7.14,5.51-10.86,8.05l-5.53,3.88c-1.86,1.26-3.76,2.47-5.64,3.71s-3.74,2.5-5.68,3.64-3.84,2.34-5.65,3.68c-3.61,2.74-7.31,5.38-11.67,6.77a266.16,266.16,0,0,1-53.68,8.85A243.21,243.21,0,0,1,479.4,507.2Z"/><path d="M437.62,418.41a69.34,69.34,0,0,0,15.91-24.31,83.87,83.87,0,0,0,5.3-29.56,105.37,105.37,0,0,0-4.75-30.69c-.72-2.53-1.65-5-2.53-7.48s-1.94-4.91-3.08-7.3A121.5,121.5,0,0,0,441,305c-1.34-2.3-2.9-4.46-4.38-6.69s-3.11-4.34-4.82-6.4-3.41-4.12-5.16-6.16c-.88-1-1.75-1.87-2.62-2.82l-1.3-1.4c-.44-.47-1-1-1.55-1.46l-25.55-23.55-51.1-47.1L140,21l10-11L358.46,194.52l52.12,46.16,26.07,23.08c.54.5,1.07.91,1.64,1.49L440,267c1.12,1.16,2.31,2.33,3.37,3.48,2.08,2.32,4.2,4.61,6.16,7s3.87,4.9,5.78,7.38,3.65,5.08,5.3,7.75a142.5,142.5,0,0,1,9.2,16.42c1.41,2.82,2.61,5.74,3.85,8.64s2.29,5.9,3.23,8.93a129.64,129.64,0,0,1,6.56,37.67,109,109,0,0,1-6.19,38.65A95.28,95.28,0,0,1,456,436.8Z"/></g></g></svg>